<svg width="50" height="62" viewBox="0 0 50 62" fill="none" xmlns="http://www.w3.org/2000/svg">
<path  class="st0" d="M26.5625 21.7C26.5625 21.2889 26.3979 20.8947 26.1049 20.604C25.8118 20.3133 25.4144 20.15 25 20.15C24.5856 20.15 24.1882 20.3133 23.8951 20.604C23.6021 20.8947 23.4375 21.2889 23.4375 21.7V29.45H18.75C18.3356 29.45 17.9382 29.6133 17.6451 29.904C17.3521 30.1947 17.1875 30.5889 17.1875 31C17.1875 31.4111 17.3521 31.8053 17.6451 32.096C17.9382 32.3867 18.3356 32.55 18.75 32.55H25C25.4144 32.55 25.8118 32.3867 26.1049 32.096C26.3979 31.8053 26.5625 31.4111 26.5625 31V21.7Z" fill="black"/>
<path  class="st0" d="M17.7094 55.8C14.8344 55.8 12.5 53.4874 12.5 50.6323V44.8663C10.5311 43.1232 8.95623 40.9866 7.87904 38.5967C6.80184 36.2068 6.24668 33.6179 6.25001 31C6.25001 25.4913 8.66251 20.5406 12.5 17.1368V11.3677C12.5 8.5157 14.8313 6.2 17.7094 6.2H32.2906C35.1656 6.2 37.5 8.5126 37.5 11.3677V17.1337C40.6771 19.9484 42.7914 23.7539 43.4938 27.9217C43.7174 27.8859 43.9461 27.8985 44.1643 27.9588C44.3825 28.019 44.5849 28.1254 44.7578 28.2706C44.9306 28.4158 45.0696 28.5964 45.1654 28.8C45.2612 29.0036 45.3113 29.2253 45.3125 29.45V32.55C45.3124 32.775 45.2629 32.9973 45.1675 33.2014C45.0721 33.4055 44.933 33.5866 44.7599 33.732C44.5869 33.8774 44.384 33.9837 44.1653 34.0435C43.9467 34.1033 43.7175 34.1152 43.4938 34.0783C42.7914 38.2461 40.6771 42.0516 37.5 44.8663V50.6323C37.5 53.4843 35.1688 55.8 32.2906 55.8H17.7094ZM40.625 31C40.625 26.8891 38.9788 22.9467 36.0486 20.0398C33.1183 17.133 29.144 15.5 25 15.5C20.856 15.5 16.8817 17.133 13.9515 20.0398C11.0212 22.9467 9.37501 26.8891 9.37501 31C9.37501 35.1109 11.0212 39.0533 13.9515 41.9602C16.8817 44.867 20.856 46.5 25 46.5C29.144 46.5 33.1183 44.867 36.0486 41.9602C38.9788 39.0533 40.625 35.1109 40.625 31Z" fill="black"/>

<style type="text/css">
<!-- /*基本の色を設定*/ -->
.st0{
	fill: black;
}

@media (prefers-color-scheme: dark) {
<!-- /*ここにダークモードの色を設定*/ -->
.st0{
	fill: white;
	}
}
</style>
</svg>
